<?xml version="1.0" encoding="utf-8"?>
<!-- Generator: Adobe Illustrator 20.1.0, SVG Export Plug-In . SVG Version: 6.00 Build 0)  -->
<svg version="1.1" id="Layer_1" xmlns="http://www.w3.org/2000/svg" xmlns:xlink="http://www.w3.org/1999/xlink" x="0px" y="0px"
	 viewBox="0 0 90.4 125.3" style="enable-background:new 0 0 90.4 125.3;" xml:space="preserve">
<style type="text/css">
	.st0{fill:#D7D7D7;}
</style>
<polygon id="Shape_16_" points="26.9,101 39.7,86.6 13.9,86.6 "/>
<path id="Shape_15_" d="M63.9,116.1l8.6,9.3l2-41.3L63.1,73l-1.7,35.8C61.2,111.5,62.1,114.1,63.9,116.1z"/>
<path id="Shape_14_" d="M2,19.9l21.3,28.9l3.4-15.7L2.2,0l-2,12.4C-0.3,15,0.4,17.8,2,19.9z"/>
<rect id="Rectangle-path_3_" x="19.6" y="57.5" class="st0" width="34" height="12.7"/>
<path id="Shape_13_" d="M89.6,20.2l-8.6-8c-2.6-2.4-9.4,2.3-19.6,13.3l-16,17.2L62,58.1l16-17.2C88.1,29.9,92.3,22.7,89.6,20.2z"/>
</svg>
