<?xml version="1.0" encoding="utf-8"?>
<!-- Generator: Adobe Illustrator 20.1.0, SVG Export Plug-In . SVG Version: 6.00 Build 0)  -->
<svg version="1.1" id="Layer_1" xmlns="http://www.w3.org/2000/svg" xmlns:xlink="http://www.w3.org/1999/xlink" x="0px" y="0px"
	 viewBox="0 0 266.7 34" style="enable-background:new 0 0 266.7 34;" xml:space="preserve">
<style type="text/css">
	.st0{fill:#2A2A2A;}
</style>
<g>
	<polygon class="st0" points="69,7.5 68.4,6.9 67.9,7.5 55.6,21.3 81.4,21.3 	"/>
	<polygon class="st0" points="11.8,22 0,34 41.3,34 51.8,22 	"/>
	<polygon class="st0" points="125.2,22 85.1,22 95.7,34 136.9,34 	"/>
</g>
<g>
	<rect x="167.5" class="st0" width="8.7" height="34"/>
	<path class="st0" d="M212.5,28.3c14.8,0,26.1-2.7,28.5-5.4c1.5-1.7,1.8-3.8,1.8-6.1c0-2.3-0.3-3.9-1.8-5.7
		c-2.4-3-13.7-5.4-28.5-5.4h-15.1v22.6H212.5z"/>
</g>
</svg>
