<?xml version="1.0" encoding="utf-8"?>
<!-- Generator: Adobe Illustrator 20.1.0, SVG Export Plug-In . SVG Version: 6.00 Build 0)  -->
<svg version="1.1" id="Layer_1" xmlns="http://www.w3.org/2000/svg" xmlns:xlink="http://www.w3.org/1999/xlink" x="0px" y="0px"
	 viewBox="0 0 274.9 99.4" style="enable-background:new 0 0 274.9 99.4;" xml:space="preserve">
<g>
	<path d="M151.9,61.4H116l10.6,12h41.2l-8.8-9C157.1,62.5,154.6,61.4,151.9,61.4z"/>
	<rect x="198.4" y="39.4" width="12.7" height="34"/>
	<path d="M251.7,45.1h-23.5v22.6h23.5c15,0,23.1-1.9,23.1-5.5V50.4C274.9,46.9,266.8,45.1,251.7,45.1z"/>
	<path d="M99.3,46.4c0,0.7,0.1,1.4,0.1,2.1L88.5,60.7h-2L99.3,46.4C97.6,20.5,76,0,49.7,0C22.2,0,0,22.2,0,49.7
		c0,27.4,22.2,49.7,49.7,49.7c23.7,0,43.4-16.5,48.4-38.7h14.2L99.4,46.3L99.3,46.4z M39.7,64.4c1.9-1.9,4.4-3,7.1-3h35.8l-1.6,1.8
		H46.3c-2.7,0-5.4,1.1-7.3,3.1l-7,7.1h-1.1L39.7,64.4z"/>
</g>
</svg>
